# xmcd
#
# Track frame offsets:
#	150
#	14151
#	23754
#	38088
#	49941
#	62930
#	69392
#	79979
#	92531
#	102469
#	117244
#	126594
#	143368
#	152063
#	167959
#	181316
#	192196
#	205169
#	215679
#	226894
#	242039
#	288418
#
# Disc length: 4059
#
# Revision: 2
# Processed by: cddbd v1.5.1PL0 Copyright (c) Steve Scherf et al.
# Submitted via: CDmax 1.8
# Normalized: r1:DSETVAR1,TDELIM( - )
#
DISCID=410fd916
DTITLE=Various Artist - Some MF Broke Inta My Truck!!
DYEAR=2002
DGENRE=Country
TTITLE0=Uncle Tupelo - Grindstone
TTITLE1=Bad Livers - I'm Using My Bible for a Roadmap
TTITLE2=Bill Monroe - Walls of Time
TTITLE3=International Submarine Band - Luxury Liner
TTITLE4=The Byrds - Close Up The Honky-Tonks
TTITLE5=Hazel Dickens and Alice Gerrard - Diffucult Run
TTITLE6=Bill Monroe - Salt Creek
TTITLE7=Bad Livers - Old Folk's Shuffle
TTITLE8=Beachwood Sparks - Silver Morning After
TTITLE9=Meat Purveyors - Museum of Love
TTITLE10=Kay Adams - Little Pink Mack
TTITLE11=Grateful Dead - Big Railroad Blues
TTITLE12=The Byrds - Buckaroo
TTITLE13=The Handsome Family - Poor, Poor Lenore
TTITLE14=Hazel Dickens and Alice Gerrard - A Tiny Broken Heart
TTITLE15=Kitty Wells - It Wasn't God Who Made Honky Tonk Angels
TTITLE16=X - Someone Like You
TTITLE17=Charlie Walker - Pick Me Up On Your Way Down
TTITLE18=The Handsome Family - Don't Be Scared
TTITLE19=Vic Chesnutt - Sad Peter Pan
TTITLE20=Grateful Dead - China Cat Sunflower > I Know You Rider
TTITLE21=Uncle Tupelo - Sandusky
EXTD=
EXTT0=
EXTT1=
EXTT2=
EXTT3=
EXTT4=
EXTT5=
EXTT6=
EXTT7=
EXTT8=
EXTT9=
EXTT10=
EXTT11=
EXTT12=
EXTT13=
EXTT14=
EXTT15=
EXTT16=
EXTT17=
EXTT18=
EXTT19=
EXTT20=
EXTT21=
PLAYORDER=
